<?xml version="1.0" encoding="UTF-8"?>
<svg version="1.1" viewBox="0 0 1600 1600" width="100" height="100" xmlns="http://www.w3.org/2000/svg">
<path transform="translate(816,139)" d="m0 0h26l25 2 24 4 23 6 19 8 11 6 14 10 6 5 5 5 11 9 10 4 19 5 15 6 19 10 14 10 13 12 5 5 9 10 10 16 8 14 9 25 6 23 3 18 3 29v40l-6 57-4 26-5 25-8 32-7 20v9l5 10 8 10 6 10 3 8 1 10v16l-2 16-5 20-7 20-8 15-7 11-7 5-13 5-5 3h-2l-3 23-5 19-12 31-9 21-13 25-7 11-9 12-9 11-3 8-2 15v82l2 20 3 15 5 12 12 18 11 12 12 10 10 7 19 12 31 16 68 29 30 12 26 11 25 11 29 14 17 9 27 16 11 8 19 14 15 13 20 20 9 11 11 16 8 13 8 15 10 25 6 20 4 17 4 24v9l-6 2-29 1h-1172l-10-2-1-6 6-31 6-23 10-30 8-17 10-16 12-16 9-11 11-12 14-14 14-11 19-14 18-12 26-15 28-14 25-11 42-17 30-12 24-10 30-13 33-16 20-12 18-13 15-14 8-9 9-14 3-6 4-20 1-9 1-26 1-74-2-8-6-12-12-15-10-15-10-18-11-23-9-23-11-33-2-16-4-7-8-5-12-6-8-7-10-18-7-19-5-19-3-16-1-19 3-13 8-16 6-9 6-8 1-2v-12l-11-45-7-39-5-41-2-31v-30l3-30 5-31 8-31 8-21 8-16 8-14 11-16 11-14 5-6h2l2-4 12-11 15-11 19-12 15-8 27-11 32-9 36-6 28-3z"/>
<path transform="translate(569,591)" d="m0 0"/>
</svg>
